<?xml version="1.0" encoding="UTF-8"?>
<svg xmlns="http://www.w3.org/2000/svg" xmlns:xlink="http://www.w3.org/1999/xlink" width="480pt" height="78pt" viewBox="0 0 480 78" version="1.1">
<g id="surface1">
<path style=" stroke:none;fill-rule:nonzero;fill:rgb(100%,32.156863%,75.686275%);fill-opacity:1;" d="M 55.933594 1.757812 C 40.484375 1.75 24.363281 5.230469 8.09375 9.742188 C 6.027344 10.160156 4.011719 11.511719 2.945312 13.183594 C 1.964844 14.761719 1.609375 16.34375 1.304688 18 C -0.277344 26.855469 -0.0859375 35.550781 0.242188 45.1875 C 0.316406 47.394531 0.644531 50.007812 1.675781 51.597656 C 2.75 53.203125 4.59375 54.222656 6.796875 54.558594 C 9.609375 54.96875 12.429688 55.320312 15.261719 55.609375 L 14.636719 73.003906 C 14.539062 74.386719 15.214844 75.539062 16.054688 76.199219 C 16.808594 76.773438 17.644531 77.027344 18.507812 77.089844 C 20.226562 77.21875 22.242188 76.484375 23.246094 74.574219 C 27.636719 66.128906 30.390625 62.398438 35.878906 56.785156 C 50.195312 57.136719 62.695312 56.34375 76.84375 55.296875 C 81.847656 55.164062 85.28125 51.074219 86.1875 47.808594 C 88.902344 39.347656 89.324219 28.898438 89.613281 18.335938 C 89.734375 14.148438 88.28125 10.039062 85.710938 7.867188 C 83.269531 5.886719 80.308594 5.167969 77.597656 4.433594 C 70.0625 2.726562 62.527344 1.808594 55.933594 1.757812 Z M 76.515625 8.378906 C 79.230469 9.117188 81.625 9.824219 83.132812 11.050781 C 85.652344 13.730469 85.570312 15.511719 85.535156 18.402344 C 85.25 28.644531 84.757812 38.589844 82.445312 46.121094 C 81.449219 48.933594 79.714844 50.933594 76.433594 51.234375 C 62.019531 52.300781 49.511719 53.125 35.019531 52.710938 C 34.449219 52.695312 33.898438 52.914062 33.492188 53.316406 C 27.40625 59.464844 24.292969 63.734375 19.652344 72.667969 C 19.542969 72.871094 19.308594 72.996094 19.023438 73.019531 C 18.828125 73.007812 18.75 72.859375 18.738281 72.722656 L 19.367188 53.859375 C 19.402344 52.839844 18.5625 51.867188 17.550781 51.757812 C 14.167969 51.433594 10.792969 51.019531 7.433594 50.519531 C 5.980469 50.296875 5.445312 49.898438 5.046875 49.304688 C 4.355469 47.65625 4.371094 46.636719 4.316406 45.050781 C 3.992188 35.5 3.832031 27.152344 5.296875 18.851562 C 5.433594 17.621094 5.894531 16.367188 6.382812 15.316406 C 7.191406 14.050781 8.429688 13.867188 9.671875 13.523438 C 25.582031 9.128906 41.148438 5.84375 55.804688 5.832031 C 62.988281 6.09375 70.535156 6.8125 76.515625 8.378906 Z M 21.554688 24.558594 C 19.363281 27.183594 19.582031 30.75 21.277344 33.136719 C 22.160156 34.386719 23.539062 35.394531 25.21875 35.621094 C 27.402344 35.800781 28.785156 34.917969 30.28125 33.902344 C 32.984375 31.550781 33.261719 27.445312 31.203125 24.480469 C 30.152344 22.972656 28.476562 22.066406 26.765625 22.003906 C 24.421875 22.027344 22.828125 23.070312 21.554688 24.554688 Z M 45.269531 22.414062 C 43.085938 22.484375 41.316406 23.996094 40.238281 25.628906 C 39.007812 27.492188 38.285156 29.828125 39.285156 32.121094 C 41.203125 36.527344 47.839844 36.472656 50.484375 31.992188 C 51.703125 29.929688 51.390625 27.585938 50.484375 25.882812 C 49.578125 24.183594 48.210938 22.796875 46.222656 22.476562 C 45.90625 22.425781 45.585938 22.40625 45.269531 22.414062 Z M 64.519531 22.828125 C 63.839844 22.8125 63.136719 22.875 62.480469 23.050781 C 59.859375 23.75 57.625 26.457031 57.960938 29.925781 C 58.132812 31.667969 58.9375 33.367188 60.382812 34.539062 C 61.828125 35.710938 63.929688 36.234375 66.140625 35.78125 C 68.6875 35.261719 70.261719 33.210938 70.789062 31.230469 C 71.3125 29.25 71.183594 27.230469 69.960938 25.597656 C 68.671875 23.882812 66.664062 22.859375 64.519531 22.828125 Z M 26.589844 26.074219 C 27.078125 26.078125 27.464844 26.234375 27.863281 26.804688 C 28.753906 28.089844 28.503906 30.035156 27.605469 30.816406 C 26.710938 31.597656 26.152344 31.664062 25.761719 31.613281 C 25.371094 31.558594 24.972656 31.289062 24.617188 30.785156 C 23.9375 29.824219 23.734375 28.273438 24.628906 27.164062 C 25.105469 26.53125 25.980469 26.136719 26.589844 26.074219 Z M 45.554688 26.519531 C 45.628906 26.53125 46.480469 27.027344 46.890625 27.792969 C 47.296875 28.558594 47.375 29.269531 46.984375 29.925781 C 45.832031 31.875 43.378906 31.347656 43.007812 30.496094 C 42.867188 30.175781 42.972656 28.871094 43.644531 27.859375 C 44.316406 26.839844 45.160156 26.457031 45.554688 26.519531 Z M 66.683594 28.015625 C 66.804688 28.183594 67.109375 29.296875 66.875 30.179688 C 66.636719 31.0625 66.253906 31.609375 65.3125 31.800781 C 64.109375 32.050781 63.433594 31.800781 62.929688 31.386719 C 62.421875 30.976562 62.078125 30.285156 62.003906 29.542969 C 61.824219 27.703125 62.484375 27.277344 63.53125 26.996094 C 64.753906 26.695312 66.132812 27.21875 66.683594 28.015625 Z M 66.683594 28.015625 "/>
<path style=" stroke:none;fill-rule:nonzero;fill:rgb(0%,14.509804%,18.039216%);fill-opacity:1;" d="M 115.21875 9.992188 C 115.253906 9.472656 115.441406 9.003906 115.792969 8.589844 C 116.140625 8.179688 116.65625 7.949219 117.195312 7.96875 L 130.847656 7.96875 C 131.308594 7.96875 131.78125 8.160156 132.273438 8.542969 C 132.738281 8.878906 133.011719 9.417969 133.007812 9.992188 L 133.007812 31.777344 L 155.851562 31.777344 L 155.851562 9.992188 C 155.851562 9.441406 156.042969 8.964844 156.425781 8.566406 C 156.808594 8.167969 157.304688 7.96875 157.917969 7.96875 L 171.386719 7.96875 C 171.996094 7.96875 172.535156 8.121094 172.992188 8.429688 C 173.453125 8.734375 173.683594 9.226562 173.683594 9.898438 L 173.683594 74.199219 C 173.683594 74.875 173.484375 75.378906 173.085938 75.714844 C 172.6875 76.054688 172.164062 76.222656 171.523438 76.222656 L 157.917969 76.222656 C 157.304688 76.222656 156.808594 76.054688 156.425781 75.714844 C 156.042969 75.378906 155.851562 74.875 155.851562 74.199219 L 155.851562 48.09375 L 133.007812 48.09375 L 133.007812 74.199219 C 133.007812 74.84375 132.800781 75.339844 132.386719 75.695312 C 131.972656 76.046875 131.414062 76.222656 130.707031 76.222656 L 117.195312 76.222656 C 115.910156 76.222656 115.253906 75.625 115.21875 74.429688 Z M 240.96875 75.441406 C 240.570312 75.777344 240.148438 75.992188 239.707031 76.085938 C 239.292969 76.171875 238.867188 76.21875 238.445312 76.222656 L 231.503906 76.222656 C 230.953125 76.222656 230.476562 76.125 230.078125 75.925781 C 229.679688 75.722656 229.34375 75.457031 229.066406 75.121094 C 228.785156 74.769531 228.550781 74.382812 228.378906 73.96875 C 228.191406 73.539062 228.039062 73.09375 227.917969 72.636719 L 226.492188 66.753906 C 226.035156 67.703125 225.367188 68.785156 224.492188 69.992188 C 223.546875 71.277344 222.425781 72.421875 221.160156 73.394531 C 219.8125 74.453125 218.203125 75.34375 216.335938 76.0625 C 214.464844 76.78125 212.320312 77.140625 209.898438 77.140625 C 206.40625 77.140625 203.234375 76.46875 200.386719 75.121094 C 197.597656 73.816406 195.113281 71.9375 193.101562 69.605469 C 191.097656 67.277344 189.539062 64.554688 188.4375 61.445312 C 187.335938 58.335938 186.78125 55.019531 186.78125 51.496094 L 186.78125 21.390625 C 186.78125 20.226562 187.035156 19.347656 187.542969 18.746094 C 188.046875 18.148438 188.851562 17.851562 189.953125 17.851562 L 200.570312 17.851562 C 201.890625 17.851562 202.792969 18.070312 203.28125 18.519531 C 203.773438 18.960938 204.019531 19.828125 204.019531 21.113281 L 204.019531 51.035156 C 204.019531 52.355469 204.316406 53.601562 204.914062 54.78125 C 205.511719 55.960938 206.300781 57.003906 207.28125 57.90625 C 208.261719 58.808594 209.371094 59.523438 210.613281 60.042969 C 211.855469 60.5625 213.117188 60.824219 214.40625 60.824219 C 215.507812 60.824219 216.648438 60.5625 217.828125 60.042969 C 219.019531 59.515625 220.117188 58.8125 221.09375 57.953125 C 222.089844 57.078125 222.90625 56.050781 223.550781 54.871094 C 224.195312 53.691406 224.515625 52.445312 224.515625 51.128906 L 224.515625 21.253906 C 224.515625 20.730469 224.617188 20.210938 224.816406 19.691406 C 225.015625 19.171875 225.3125 18.769531 225.710938 18.492188 C 226.109375 18.25 226.484375 18.082031 226.839844 17.988281 C 227.191406 17.898438 227.597656 17.851562 228.054688 17.851562 L 238.445312 17.851562 C 239.761719 17.851562 240.710938 18.175781 241.292969 18.816406 C 241.875 19.460938 242.164062 20.316406 242.164062 21.390625 L 242.164062 72.820312 C 242.164062 73.402344 242.035156 73.941406 241.777344 74.429688 C 241.515625 74.921875 241.15625 75.304688 240.695312 75.578125 Z M 294.332031 69.097656 C 293.503906 69.925781 292.59375 70.8125 291.597656 71.765625 C 290.601562 72.714844 289.507812 73.605469 288.3125 74.429688 C 287.109375 75.261719 285.816406 75.949219 284.453125 76.476562 C 283.027344 77.019531 281.515625 77.292969 279.992188 77.28125 C 275.824219 77.28125 271.988281 76.5 268.476562 74.9375 C 265.054688 73.433594 261.976562 71.253906 259.425781 68.523438 C 256.894531 65.8125 254.921875 62.617188 253.496094 58.941406 C 252.070312 55.265625 251.359375 51.3125 251.359375 47.082031 C 251.359375 42.820312 252.070312 38.863281 253.496094 35.203125 C 254.921875 31.542969 256.894531 28.355469 259.425781 25.640625 C 261.972656 22.914062 265.054688 20.742188 268.476562 19.253906 C 271.988281 17.707031 275.824219 16.933594 279.992188 16.933594 C 281.679688 16.933594 283.21875 17.179688 284.613281 17.667969 C 285.957031 18.132812 287.238281 18.765625 288.425781 19.550781 C 289.574219 20.316406 290.632812 21.183594 291.597656 22.148438 C 292.5625 23.113281 293.472656 24.054688 294.332031 24.976562 L 294.332031 3.96875 C 294.332031 2.988281 294.632812 2.164062 295.226562 1.488281 C 295.824219 0.8125 296.722656 0.476562 297.917969 0.476562 L 308.257812 0.476562 C 308.65625 0.476562 309.078125 0.5625 309.523438 0.730469 C 309.964844 0.898438 310.371094 1.136719 310.742188 1.445312 C 311.109375 1.75 311.40625 2.117188 311.636719 2.546875 C 311.867188 2.976562 311.980469 3.449219 311.980469 3.96875 L 311.980469 72.683594 C 311.980469 75.042969 310.742188 76.222656 308.257812 76.222656 L 299.25 76.222656 C 298.636719 76.222656 298.160156 76.144531 297.824219 75.992188 C 297.492188 75.84375 297.199219 75.613281 296.972656 75.324219 C 296.71875 74.988281 296.507812 74.617188 296.355469 74.222656 C 296.136719 73.707031 295.90625 73.191406 295.664062 72.683594 Z M 267.902344 47.082031 C 267.886719 49.015625 268.207031 50.9375 268.847656 52.761719 C 269.472656 54.519531 270.371094 56.046875 271.535156 57.332031 C 272.714844 58.628906 274.144531 59.667969 275.738281 60.386719 C 277.378906 61.140625 279.195312 61.515625 281.1875 61.515625 C 283.148438 61.515625 284.992188 61.160156 286.726562 60.457031 C 288.40625 59.785156 289.945312 58.792969 291.253906 57.539062 C 292.550781 56.28125 293.605469 54.792969 294.355469 53.148438 C 295.136719 51.464844 295.574219 49.65625 295.664062 47.726562 L 295.664062 47.082031 C 295.671875 45.160156 295.296875 43.253906 294.5625 41.476562 C 293.847656 39.734375 292.8125 38.144531 291.507812 36.789062 C 290.195312 35.433594 288.636719 34.351562 286.910156 33.59375 C 285.105469 32.804688 283.15625 32.40625 281.1875 32.421875 C 279.195312 32.421875 277.378906 32.8125 275.738281 33.59375 C 274.101562 34.375 272.699219 35.441406 271.535156 36.789062 C 270.351562 38.167969 269.441406 39.757812 268.847656 41.476562 C 268.214844 43.277344 267.898438 45.171875 267.90625 47.082031 Z M 365.34375 69.097656 C 364.515625 69.925781 363.605469 70.8125 362.609375 71.765625 C 361.613281 72.714844 360.515625 73.605469 359.320312 74.429688 C 358.121094 75.261719 356.824219 75.949219 355.460938 76.476562 C 354.039062 77.019531 352.527344 77.292969 351.003906 77.28125 C 346.835938 77.28125 342.996094 76.5 339.488281 74.9375 C 336.066406 73.433594 332.988281 71.253906 330.433594 68.523438 C 327.90625 65.8125 325.929688 62.617188 324.507812 58.941406 C 323.082031 55.265625 322.367188 51.3125 322.367188 47.082031 C 322.367188 42.820312 323.082031 38.863281 324.507812 35.203125 C 325.929688 31.542969 327.90625 28.355469 330.433594 25.640625 C 332.984375 22.914062 336.066406 20.742188 339.488281 19.253906 C 342.996094 17.707031 346.835938 16.933594 351.003906 16.933594 C 352.6875 16.933594 354.226562 17.179688 355.621094 17.667969 C 356.96875 18.132812 358.25 18.765625 359.4375 19.550781 C 360.585938 20.316406 361.640625 21.183594 362.609375 22.148438 C 363.574219 23.113281 364.484375 24.054688 365.34375 24.976562 L 365.34375 3.96875 C 365.34375 2.988281 365.640625 2.164062 366.238281 1.488281 C 366.839844 0.8125 367.730469 0.476562 368.929688 0.476562 L 379.269531 0.476562 C 379.667969 0.476562 380.089844 0.5625 380.53125 0.730469 C 380.976562 0.898438 381.382812 1.136719 381.753906 1.445312 C 382.117188 1.75 382.417969 2.117188 382.648438 2.546875 C 382.875 2.976562 382.992188 3.449219 382.992188 3.96875 L 382.992188 72.683594 C 382.992188 75.042969 381.753906 76.222656 379.269531 76.222656 L 370.261719 76.222656 C 369.648438 76.222656 369.171875 76.144531 368.835938 75.992188 C 368.503906 75.84375 368.210938 75.613281 367.984375 75.324219 C 367.730469 74.988281 367.519531 74.617188 367.367188 74.222656 C 367.148438 73.707031 366.917969 73.191406 366.675781 72.683594 Z M 338.914062 47.082031 C 338.898438 49.015625 339.21875 50.9375 339.855469 52.761719 C 340.484375 54.519531 341.382812 56.046875 342.546875 57.332031 C 343.722656 58.628906 345.15625 59.667969 346.753906 60.386719 C 348.390625 61.140625 350.207031 61.515625 352.199219 61.515625 C 354.15625 61.515625 356.003906 61.160156 357.734375 60.457031 C 359.417969 59.785156 360.957031 58.792969 362.265625 57.539062 C 363.5625 56.28125 364.613281 54.792969 365.363281 53.148438 C 366.144531 51.464844 366.585938 49.65625 366.675781 47.726562 L 366.675781 47.082031 C 366.683594 45.160156 366.308594 43.253906 365.570312 41.476562 C 364.859375 39.734375 363.824219 38.144531 362.515625 36.789062 C 361.207031 35.433594 359.644531 34.351562 357.921875 33.59375 C 356.117188 32.804688 354.167969 32.40625 352.199219 32.421875 C 350.207031 32.421875 348.390625 32.8125 346.753906 33.59375 C 345.113281 34.375 343.710938 35.441406 342.546875 36.789062 C 341.363281 38.167969 340.449219 39.757812 339.855469 41.476562 C 339.222656 43.277344 338.90625 45.171875 338.914062 47.082031 Z M 395.21875 4.015625 C 395.21875 3.035156 395.464844 2.210938 395.953125 1.535156 C 396.445312 0.859375 397.289062 0.523438 398.480469 0.523438 L 409.742188 0.523438 C 410.050781 0.523438 410.371094 0.609375 410.707031 0.777344 C 411.0625 0.957031 411.378906 1.199219 411.648438 1.488281 C 411.941406 1.796875 412.1875 2.164062 412.386719 2.59375 C 412.585938 3.023438 412.6875 3.496094 412.6875 4.015625 L 412.6875 72.683594 C 412.6875 73.847656 412.355469 74.726562 411.695312 75.324219 C 411.039062 75.925781 410.1875 76.222656 409.144531 76.222656 L 398.480469 76.222656 C 397.289062 76.222656 396.445312 75.921875 395.953125 75.324219 C 395.464844 74.726562 395.21875 73.847656 395.21875 72.683594 Z M 472.621094 69.234375 C 469.953125 71.699219 466.875 73.667969 463.519531 75.050781 C 460.125 76.449219 456.484375 77.160156 452.808594 77.140625 C 448.609375 77.140625 444.644531 76.375 440.90625 74.84375 C 437.253906 73.367188 433.914062 71.207031 431.070312 68.476562 C 428.238281 65.746094 425.957031 62.492188 424.359375 58.894531 C 422.703125 55.21875 421.878906 51.21875 421.878906 46.898438 C 421.878906 44.203125 422.207031 41.589844 422.867188 39.0625 C 423.503906 36.589844 424.445312 34.203125 425.671875 31.960938 C 426.878906 29.753906 428.363281 27.710938 430.082031 25.871094 C 431.796875 24.03125 433.753906 22.429688 435.894531 21.113281 C 438.078125 19.78125 440.425781 18.746094 442.882812 18.035156 C 445.464844 17.289062 448.144531 16.917969 450.832031 16.933594 C 453.375 16.933594 455.84375 17.269531 458.230469 17.945312 C 460.621094 18.617188 462.867188 19.566406 464.964844 20.792969 C 467.066406 22.019531 468.984375 23.488281 470.734375 25.207031 C 472.457031 26.894531 473.96875 28.785156 475.238281 30.835938 C 476.496094 32.875 477.476562 35.066406 478.15625 37.363281 C 478.847656 39.675781 479.191406 42.058594 479.191406 44.507812 C 479.191406 46.101562 479.167969 47.402344 479.121094 48.414062 C 479.074219 49.425781 478.839844 50.230469 478.410156 50.828125 C 477.980469 51.429688 477.269531 51.839844 476.273438 52.066406 C 475.277344 52.300781 473.8125 52.414062 471.882812 52.414062 L 438.792969 52.414062 C 439.097656 54.375 439.71875 56.015625 440.652344 57.335938 C 441.515625 58.582031 442.617188 59.652344 443.890625 60.480469 C 445.117188 61.261719 446.421875 61.820312 447.800781 62.160156 C 449.078125 62.484375 450.386719 62.652344 451.707031 62.664062 C 452.808594 62.664062 453.941406 62.546875 455.105469 62.320312 C 456.253906 62.09375 457.382812 61.789062 458.484375 61.398438 C 459.519531 61.042969 460.515625 60.59375 461.472656 60.066406 C 462.375 59.5625 463.105469 59.03125 463.65625 58.480469 C 464.144531 58.082031 464.566406 57.785156 464.921875 57.585938 C 465.273438 57.382812 465.648438 57.285156 466.046875 57.285156 C 466.445312 57.285156 466.851562 57.425781 467.265625 57.699219 C 467.769531 58.050781 468.238281 58.453125 468.664062 58.894531 L 473.539062 64.410156 C 473.875 64.808594 474.089844 65.171875 474.183594 65.488281 C 474.273438 65.8125 474.320312 66.140625 474.320312 66.476562 C 474.320312 67.09375 474.148438 67.621094 473.8125 68.0625 C 473.472656 68.511719 473.070312 68.90625 472.617188 69.234375 Z M 450.511719 30.949219 C 449.316406 30.949219 448.160156 31.1875 447.042969 31.660156 C 445.90625 32.144531 444.847656 32.789062 443.890625 33.570312 C 442.910156 34.367188 442.03125 35.269531 441.25 36.28125 C 440.503906 37.234375 439.863281 38.269531 439.34375 39.363281 L 462.828125 39.363281 C 462.210938 38.210938 461.511719 37.101562 460.738281 36.050781 C 460 35.054688 459.136719 34.15625 458.164062 33.386719 C 457.171875 32.605469 456.050781 32 454.855469 31.59375 C 453.613281 31.164062 452.164062 30.949219 450.511719 30.949219 Z M 450.511719 30.949219 "/>
</g>
</svg>
